<svg id="air-hot-balloon" xmlns="http://www.w3.org/2000/svg" width="20.579" height="30.829" viewBox="0 0 20.579 30.829">
  <g id="Group_6897" data-name="Group 6897" transform="translate(5.157 21.946)">
    <path id="Path_10140" data-name="Path 10140" d="M61.562,77.864a.164.164,0,0,1-.1-.031.171.171,0,0,1-.04-.235l2.556-3.675a.164.164,0,0,1,.231-.04c.075.054.135.062.082.138l-2.6,3.773A.165.165,0,0,1,61.562,77.864Z" transform="translate(-54.048 -73.851)" fill="#1a73e8"/>
    <path id="Path_10141" data-name="Path 10141" d="M55.991,77.864a.165.165,0,0,1-.045-.006.169.169,0,0,1-.114-.208l1.019-3.675a.165.165,0,0,1,.2-.117c.088.025.17.012.145.1l-1.049,3.782A.166.166,0,0,1,55.991,77.864Z" transform="translate(-50.407 -73.851)" fill="#1a73e8"/>
    <path id="Path_10142" data-name="Path 10142" d="M42.958,77.864a.164.164,0,0,0,.1-.031.171.171,0,0,0,.04-.235l-2.556-3.675a.164.164,0,0,0-.231-.04c-.075.054-.154.062-.1.138l2.617,3.773A.165.165,0,0,0,42.958,77.864Z" transform="translate(-40.187 -73.851)" fill="#1a73e8"/>
    <path id="Path_10143" data-name="Path 10143" d="M51.474,77.864a.165.165,0,0,0,.045-.006.169.169,0,0,0,.114-.208l-1.019-3.675a.165.165,0,0,0-.2-.117c-.088.025-.164.029-.139.119l1.044,3.765A.166.166,0,0,0,51.474,77.864Z" transform="translate(-46.774 -73.851)" fill="#1a73e8"/>
  </g>
  <path id="Path_10144" data-name="Path 10144" d="M45.874,85.281v3.782A1.141,1.141,0,0,0,47.015,90.2h4.041A1.141,1.141,0,0,0,52.2,89.063V85.281Z" transform="translate(-38.747 -59.375)" fill="#bbc0c6"/>
  <path id="Path_10145" data-name="Path 10145" d="M40.707,32.625c2.716-2.852,5.174-7.338,5.174-11.117,0-6.074-4.607-11-10.289-11S25.3,15.434,25.3,21.508c0,3.779,2.459,8.265,5.174,11.117Z" transform="translate(-25.303 -10.51)" fill="#ced1d6"/>
  <path id="Path_10146" data-name="Path 10146" d="M46.631,32.625A24.054,24.054,0,0,0,49.4,21.508c0-6.074-2.831-11-6.323-11s-6.323,4.924-6.323,11a24.054,24.054,0,0,0,2.765,11.117Z" transform="translate(-32.783 -10.51)" fill="#f7f8fa"/>
  <path id="Path_10147" data-name="Path 10147" d="M51.268,32.625A49.538,49.538,0,0,0,52.5,21.508c0-6.074-1.263-11-2.82-11s-2.82,4.924-2.82,11a49.538,49.538,0,0,0,1.233,11.117Z" transform="translate(-39.392 -10.51)" fill="#cfd0d4"/>
  <path id="Path_10148" data-name="Path 10148" d="M50.848,83.168H44.1a.616.616,0,1,0,0,1.232h6.748a.616.616,0,1,0,0-1.232Z" transform="translate(-37.185 -57.994)" fill="#1a73e8"/>
</svg>
